<?xml version="1.0" standalone="no"?>
<!DOCTYPE svg PUBLIC "-//W3C//DTD SVG 20010904//EN"
 "http://www.w3.org/TR/2001/REC-SVG-20010904/DTD/svg10.dtd">
<svg version="1.0" xmlns="http://www.w3.org/2000/svg"
 width="700.000000pt" height="700.000000pt" viewBox="0 0 700.000000 700.000000"
 preserveAspectRatio="xMidYMid meet">
<metadata>
Created by potrace 1.11, written by Peter Selinger 2001-2013
</metadata>
<g transform="translate(0.000000,700.000000) scale(0.100000,-0.100000)"
fill="#000000" stroke="none">
<path d="M829 6989 c-107 -11 -190 -34 -286 -79 -104 -49 -161 -88 -247 -169
-121 -117 -211 -267 -258 -436 l-23 -80 -3 -2680 c-2 -1987 0 -2699 8 -2755
48 -308 232 -562 505 -695 50 -24 126 -54 170 -67 l80 -23 2708 -3 c2647 -2
2710 -2 2803 17 315 65 544 255 677 563 l32 73 3 2824 2 2823 -29 85 c-86 249
-293 460 -542 553 -159 58 57 54 -2859 56 -1466 1 -2699 -2 -2741 -7z m2446
-1119 c48 -327 89 -612 92 -632 5 -34 3 -37 -23 -43 -258 -56 -498 -248 -609
-488 -101 -219 -101 -494 -1 -712 114 -247 333 -425 603 -492 102 -25 294 -23
405 5 242 60 442 212 564 428 79 140 109 279 102 459 l-6 121 786 157 c432 86
787 155 790 153 2 -2 -435 -970 -970 -2150 l-973 -2146 -2 68 c-2 37 7 617 20
1290 20 1092 20 1222 7 1222 -9 0 -317 -70 -685 -155 -630 -145 -671 -153
-686 -137 -21 22 -1659 2329 -1665 2345 -5 14 2147 1320 2157 1309 3 -4 45
-275 94 -602z m1325 560 c449 -129 739 -523 717 -970 -10 -186 -63 -347 -165
-497 -62 -91 -74 -96 -51 -22 80 258 59 514 -63 751 -53 103 -94 159 -181 246
-253 257 -633 357 -987 261 -76 -21 -226 -88 -290 -131 l-35 -23 49 63 c121
158 343 290 566 337 100 21 344 13 440 -15z m-318 -649 c127 -40 254 -144 321
-261 79 -139 92 -334 32 -482 -25 -61 -96 -168 -135 -203 l-22 -20 8 55 c16
100 10 209 -16 290 -109 340 -512 506 -832 344 -27 -14 -48 -20 -48 -16 0 22
82 132 130 174 154 135 369 180 562 119z m-576 -924 c120 -43 239 -138 298
-239 90 -154 97 -330 20 -496 -44 -95 -150 -204 -245 -251 -68 -33 -178 -61
-244 -61 -66 0 -176 28 -245 62 -93 45 -199 153 -245 249 -96 204 -58 434 98
593 72 73 118 104 202 135 105 40 262 43 361 8z"/>
</g>
</svg>
