<svg xmlns='http://www.w3.org/2000/svg' fill="#fff" viewBox="0 0 1 1" xmlns:xlink='http://www.w3.org/1999/xlink'>
<view id="brightness_auto" viewBox="12042 0 24 24" preserveAspectRatio="xMidYMid meet" />
<view id="brightness_high" viewBox="12106 0 24 24" preserveAspectRatio="xMidYMid meet" />
<view id="brightness_low" viewBox="12170 0 24 24" preserveAspectRatio="xMidYMid meet" />
<view id="brightness_medium" viewBox="12234 0 24 24" preserveAspectRatio="xMidYMid meet" />
<!-- brightness_auto --><svg x='12042'>
<path d="M0 0h24v24H0z" fill="none"/><path d="M10.85 12.65h2.3L12 9l-1.15 3.65zM20 8.69V4h-4.69L12 .69 8.69 4H4v4.69L.69 12 4 15.31V20h4.69L12 23.31 15.31 20H20v-4.69L23.31 12 20 8.69zM14.3 16l-.7-2h-3.2l-.7 2H7.8L11 7h2l3.2 9h-1.9z"/>
</svg>
<!-- brightness_high --><svg x='12106'>
<path d="M0 0h24v24H0z" fill="none"/><path d="M20 8.69V4h-4.69L12 .69 8.69 4H4v4.69L.69 12 4 15.31V20h4.69L12 23.31 15.31 20H20v-4.69L23.31 12 20 8.69zM12 18c-3.31 0-6-2.69-6-6s2.69-6 6-6 6 2.69 6 6-2.69 6-6 6zm0-10c-2.21 0-4 1.79-4 4s1.79 4 4 4 4-1.79 4-4-1.79-4-4-4z"/>
</svg>
<!-- brightness_low --><svg x='12170'>
<path d="M0 0h24v24H0z" fill="none"/><path d="M20 15.31L23.31 12 20 8.69V4h-4.69L12 .69 8.69 4H4v4.69L.69 12 4 15.31V20h4.69L12 23.31 15.31 20H20v-4.69zM12 18c-3.31 0-6-2.69-6-6s2.69-6 6-6 6 2.69 6 6-2.69 6-6 6z"/>
</svg>
<!-- brightness_medium --><svg x='12234'>
<path d="M0 0h24v24H0z" fill="none"/><path d="M20 15.31L23.31 12 20 8.69V4h-4.69L12 .69 8.69 4H4v4.69L.69 12 4 15.31V20h4.69L12 23.31 15.31 20H20v-4.69zM12 18V6c3.31 0 6 2.69 6 6s-2.69 6-6 6z"/>
</svg>
</svg>
