<?xml version="1.0" encoding="UTF-8" standalone="no"?>
<!-- Created with Inkscape (http://www.inkscape.org/) -->

<svg
   xmlns:dc="http://purl.org/dc/elements/1.1/"
   xmlns:cc="http://creativecommons.org/ns#"
   xmlns:rdf="http://www.w3.org/1999/02/22-rdf-syntax-ns#"
   xmlns:svg="http://www.w3.org/2000/svg"
   xmlns="http://www.w3.org/2000/svg"
   version="1.1"
   width="15"
   height="15"
   viewBox="0 0 15 15"
   id="Layer_1"
   xml:space="preserve"><metadata
   id="metadata11"><rdf:RDF><cc:Work
       rdf:about=""><dc:format>image/svg+xml</dc:format><dc:type
         rdf:resource="http://purl.org/dc/dcmitype/StillImage" /><dc:title></dc:title></cc:Work></rdf:RDF></metadata><defs
   id="defs9">
	
</defs>
<g
   transform="translate(-82.534,-604.78301)"
   id="Layer_1_1_">
</g>
<path
   d="m 15,3.5782054 0,5.1017935 0,4.5647521 c 0,0.231082 -0.158805,0.436215 -0.394248,0.509357 -0.06008,0.01869 -0.121666,0.02767 -0.182594,0.02767 -0.177964,0 -0.350211,-0.07681 -0.461342,-0.2145 -0.716274,-0.887538 -1.809834,-1.396609 -3.000231,-1.396609 -1.1904209,0 -2.2839807,0.509027 -3.0002553,1.396609 -0.109004,0.135068 -0.2799045,0.2145 -0.4612706,0.2145 -0.1814135,0 -0.3522667,-0.07943 -0.4612706,-0.2145 C 6.3225138,12.67974 5.228954,12.170669 4.0385333,12.170669 c -1.1904207,0 -2.2840277,0.509071 -3.000326,1.396609 -0.11113018,0.137686 -0.28337725,0.2145 -0.46134147,0.2145 -0.0609279,0 -0.12254087,-0.009 -0.18261827,-0.02767 C 0.15882828,13.680966 0,13.475833 0,13.244751 L 0,8.6799989 0,3.5782054 C 0,3.4618507 0.04056346,3.3486627 0.11564249,3.2556405 0.56297456,2.7013998 1.1489831,2.2421826 1.8104251,1.9275785 2.4947356,1.6020888 3.2652052,1.4300748 4.0384624,1.4300748 c 0.7732573,0 1.5437268,0.172014 2.2280374,0.4975037 0.4534036,0.2156663 0.8713939,0.499263 1.233512,0.8348465 C 7.8621299,2.4268415 8.2801202,2.1432448 8.7335002,1.9275785 9.4178344,1.6020888 10.18828,1.4300748 10.961585,1.4300748 c 0.773257,0 1.543727,0.172014 2.228061,0.4975037 0.661418,0.3146041 1.247427,0.7738213 1.694759,1.328062 C 14.959435,3.3486627 15,3.4618507 15,3.5782054 z M 5.9710269,10.894481 5.99751,4.5172316 C 5.9975759,4.5013537 5.99968,4.4860486 6.00249,4.4710066 5.2120104,3.6743143 5.0316304,3.2837398 4.0384576,3.3075963 3.1016262,3.3300994 2.7894637,3.8075362 2,4.7857425 l -0.026483,4.6887479 0,1.6199796 C 2.7629854,10.116264 3.0996177,9.8652092 4.0119793,9.8917153 4.8685784,9.9166313 5.1807363,10.100824 5.9710269,10.894481 z M 13.179448,4.8651916 C 12.389984,3.8869853 11.818817,3.3865955 11.041034,3.386927 10.206599,3.3872827 9.8674002,3.7537634 9.0769442,4.5504555 c 0.00283,0.015042 0.00521,0.030348 0.00501,0.046225 L 9.002505,10.78857 c 0.7902434,-0.7936787 1.236667,-0.771157 2.012048,-0.764395 0.913863,0.008 1.295984,-0.01384 2.085448,0.964406 l 0,-2.3085823 z"
   id="path5"
   style="fill:#ffffff" />
</svg>