<svg xmlns="http://www.w3.org/2000/svg" width="36" height="36"><rect width="36.084" height="35.98" x=".052" y=".02" ry="4.734" rx="4.693" color="#000" fill="#424242" overflow="visible"/><g fill="#fff"><path d="M16.372 2.66L5.216 9.402l8.67 12.202 7.073-1.635-.238 13.37 10.062-22.186-8.168 1.634c.054.275.083.558.083.848 0 2.463-2.025 4.46-4.522 4.46-2.498 0-4.522-1.997-4.522-4.46 0-2.19 1.6-4.01 3.71-4.388l-.106-.575z"/><path d="M20.974 13.636c0 1.523-1.252 2.758-2.796 2.758-1.545 0-2.796-1.235-2.796-2.758 0-1.524 1.25-2.76 2.796-2.76 1.544 0 2.796 1.236 2.796 2.76zM21.102 6.12c-1.207 0-2.244.716-2.7 1.74.483-.316 1.062-.5 1.685-.5 1.684 0 3.05 1.346 3.05 3.007 0 .305-.047.6-.133.88.64-.534 1.044-1.33 1.044-2.22 0-1.606-1.32-2.907-2.946-2.907zm1.255-3.36"/><path d="M22.357 2.76c-1.73 0-3.252.864-4.152 2.178.864-.637 1.936-1.014 3.098-1.014 2.862 0 5.182 2.29 5.182 5.112 0 .693-.14 1.352-.392 1.954.79-.873 1.272-2.026 1.272-3.29 0-2.73-2.242-4.94-5.008-4.94z"/></g></svg>
