<svg xmlns="http://www.w3.org/2000/svg" xml:space="preserve" width="15" height="15" viewBox="0 0 512 512"><path d="M451.083 73.486c0-14.63-11.884-26.502-26.481-26.502-14.616 0-26.463 11.871-26.463 26.502v130.835c-5.35-1.31-11.057-2.544-17.066-3.778V36.018c0-14.631-11.904-26.464-26.482-26.464-14.615 0-26.482 11.833-26.482 26.464v153.511a737.428 737.428 0 0 0-17.046-3.542V26.465C311.062 11.9 299.196 0 284.617 0c-14.673 0-26.481 11.9-26.481 26.465v153.068c-6.009 0-11.602.518-17.047 1.385V74.014c0-14.594-11.904-26.436-26.483-26.436-14.634 0-26.463 11.842-26.463 26.436 0 0-.189 184.036-.114 188.106-3.05 25.599-49.14-26.191-89.543-37.177-42.794-11.683-53.625 28.999-11.659 62.257 70.897 56.293 132.13 177.913 132.13 224.605 66.446 0 124.595.039 181.308.039 11.406-43.413 50.818-79.63 50.818-195.4z" style="stroke-width:1.16559;fill:#fff"/></svg>
