<?xml version="1.0" encoding="UTF-8" standalone="no"?>
<!-- Created with Inkscape (http://www.inkscape.org/) -->

<svg
   xmlns:dc="http://purl.org/dc/elements/1.1/"
   xmlns:cc="http://creativecommons.org/ns#"
   xmlns:rdf="http://www.w3.org/1999/02/22-rdf-syntax-ns#"
   xmlns:svg="http://www.w3.org/2000/svg"
   xmlns="http://www.w3.org/2000/svg"
   version="1.1"
   width="15"
   height="15"
   viewBox="0 0 15 15"
   id="Layer_1"
   xml:space="preserve"><metadata
   id="metadata13"><rdf:RDF><cc:Work
       rdf:about=""><dc:format>image/svg+xml</dc:format><dc:type
         rdf:resource="http://purl.org/dc/dcmitype/StillImage" /><dc:title></dc:title></cc:Work></rdf:RDF></metadata><defs
   id="defs11" />
<g
   transform="matrix(0.0390625,0,0,0.0390625,-2.5,-2.5)"
   id="g3"
   style="fill:#ffffff">
	<path
   d="m 384,160 64,64 -64,64 V 240 H 232 c -4.4,0 -8,-3.6 -8,-8 v -16 c 0,-4.4 3.6,-8 8,-8 h 152 v -48 z"
   id="path5"
   style="fill:#ffffff" />
	<path
   d="M 352,176 V 72 c 0,-4.4 -3.6,-8 -8,-8 H 72 c -4.4,0 -8,3.6 -8,8 v 302 c 0,8.5 0,10 9.2,14.6 L 192,448 v -64 h 152 c 4.4,0 8,-3.6 8,-8 V 272 h -32 v 80 H 192 V 128 L 144,96 h 176 v 80 h 32 z"
   id="path7"
   style="fill:#ffffff" />
</g>
</svg>