<svg xmlns="http://www.w3.org/2000/svg" width="15" height="15" viewBox="0 0 15 15"><path d="M2.983 7.626c0-2.547 2.046-4.612 4.57-4.612 1.088 0 2.083.393 2.866 1.037L8.622 5.777l5.676.652.045-6.15-1.747 1.68C11.26.744 9.496 0 7.555 0 3.382 0 0 3.415 0 7.626c0 .157.014-.13.024.025l3.048.434c-.057-.29-.09-.15-.09-.458zm11.993-.277l-3.048-.434c.058.292.088.15.088.46 0 2.545-2.045 4.61-4.568 4.61-1.086 0-2.078-.39-2.86-1.03L6.38 9.23.707 8.58.66 14.727l1.75-1.68C3.744 14.26 5.507 15 7.444 15 11.618 15 15 11.586 15 7.375c0-.157-.014.13-.024-.026z" fill="#fff"/></svg>
