<?xml version="1.0" encoding="UTF-8" standalone="no"?>
<!-- Created with Inkscape (http://www.inkscape.org/) -->

<svg
   xmlns:dc="http://purl.org/dc/elements/1.1/"
   xmlns:cc="http://creativecommons.org/ns#"
   xmlns:rdf="http://www.w3.org/1999/02/22-rdf-syntax-ns#"
   xmlns:svg="http://www.w3.org/2000/svg"
   xmlns="http://www.w3.org/2000/svg"
   version="1.1"
   width="15"
   height="15"
   viewBox="0 0 15 15"
   id="svg-reload-container"
   xml:space="preserve"><metadata
   id="metadata10"><rdf:RDF><cc:Work
       rdf:about=""><dc:format>image/svg+xml</dc:format><dc:type
         rdf:resource="http://purl.org/dc/dcmitype/StillImage" /><dc:title></dc:title></cc:Work></rdf:RDF></metadata><defs
   id="defs8" />
  <path
   d="m 2.9833602,7.6257245 c 0,-2.546265 2.0457927,-4.61153 4.568178,-4.61153 1.0897113,0 2.0848653,0.392368 2.8679608,1.036416 l -1.7961388,1.725411 5.6760058,0.651673 0.04572,-6.14821 -1.747241,1.679146 C 11.260634,0.7430565 9.4956747,-5e-7 7.5545478,-5e-7 3.3821487,-5e-7 0,3.4147035 0,7.6258395 c 0,0.157199 0.01374349,-0.129911 0.0235116,0.02551 l 3.0485568,0.43313 c -0.056848,-0.291696 -0.088708,-0.151008 -0.088708,-0.458757 z m 11.9930718,-0.276274 -3.048614,-0.43313 c 0.05776,0.291581 0.08837,0.150033 0.08837,0.458183 0,2.546265 -2.0449414,4.6111295 -4.5677242,4.6111295 -1.0865874,0 -2.0786748,-0.389731 -2.8613154,-1.030225 L 6.3814671,9.2310285 0.70631328,8.5794135 0.66019881,14.728083 2.4087459,13.047618 C 3.7451016,14.259637 5.5078467,15 7.4454519,15 11.617795,15 15,11.585696 15,7.3746185 c 0,-0.156856 -0.0142,0.130197 -0.02357,-0.02517 z"
   id="svg-reload"
   style="fill:#ffffff" />
</svg>
