<?xml version="1.0" encoding="UTF-8" standalone="no"?>
<!-- Created with Inkscape (http://www.inkscape.org/) -->

<svg
   xmlns:dc="http://purl.org/dc/elements/1.1/"
   xmlns:cc="http://creativecommons.org/ns#"
   xmlns:rdf="http://www.w3.org/1999/02/22-rdf-syntax-ns#"
   xmlns:svg="http://www.w3.org/2000/svg"
   xmlns="http://www.w3.org/2000/svg"
   xmlns:xlink="http://www.w3.org/1999/xlink"
   version="1.1"
   width="15"
   height="15"
   viewBox="0 0 15 15.000001"
   id="Layer_1"
   xml:space="preserve"><metadata
   id="metadata127"><rdf:RDF><cc:Work
       rdf:about=""><dc:format>image/svg+xml</dc:format><dc:type
         rdf:resource="http://purl.org/dc/dcmitype/StillImage" /><dc:title></dc:title></cc:Work></rdf:RDF></metadata><defs
   id="defs125" />

<circle
   cx="788"
   cy="257.66699"
   r="232.98199"
   transform="translate(-114.631,-381.75901)"
   id="circle5"
   style="fill:#1a1a1a" />
<circle
   cx="1320"
   cy="255.66701"
   r="232.98199"
   transform="translate(-114.631,-381.75901)"
   id="circle7"
   style="fill:#1a1a1a" />
<circle
   cx="1852"
   cy="255.66701"
   r="232.98199"
   transform="translate(-114.631,-381.75901)"
   id="circle9"
   style="fill:#1a1a1a" />
<circle
   cx="2384"
   cy="255.66701"
   r="232.98199"
   transform="translate(-114.631,-381.75901)"
   id="circle11"
   style="fill:#1a1a1a" />
<circle
   cx="2916"
   cy="255.66701"
   r="232.98199"
   transform="translate(-114.631,-381.75901)"
   id="circle13"
   style="fill:#1a1a1a" />
<circle
   cx="3448"
   cy="255.66701"
   r="232.98199"
   transform="translate(-114.631,-381.75901)"
   id="circle15"
   style="fill:#1a1a1a" />
<path
   d="m 2195.773,-60.234009 c 11.508,18.367 23.227,37.555 34.742,55.9139999 16.672,-10.2729999 33.852,-19.9059999 50.539,-30.1949999 3.133,-8.336 -53.641,-23.219 -25.695,-52.781 33.813,-35.703001 57.656,-9.203 52.125,25.914 1.078,1.383 0.938,4.828 4.023,5.359 16.531,-2.844 39.281,-22.039 53.227,-29.461 -9.695,-19.117001 -19.984,-39.938001 -29.664,-59.055001 17.484,-12.594 56.281,3.445 47.602,-38.586 -8.461,-41.148 -55.883,-29.82 -57.852,1.266 -1.539,1.273 -3.063,2.523 -4.594,3.766 -13.148,-4.672 -28.047,-38.594 -37.055,-55.773 -17.313,9.688 -18.023,11.148 -35.359,20.836 -0.352,2.242 -3.969,-0.016 -1.07,6.703 2.875,6.711 15.563,6.109 24.477,11.195 16.07,20.766 -5.008,50.664 -28.109,51.18 -36.461,0.773 -14.852,-33.961 -28.875,-48.703 -17.664,10.242 -51.789,30.453 -69.461,40.656 10.219,19.508 21.508,39.359 31.719,58.836001"
   id="path17"
   style="fill:#f2f2f2;fill-rule:evenodd" />
<g
   transform="translate(-114.631,-381.75901)"
   id="g19">
	<path
   d="m 2836.788,352.149 c -3.185,8.237 -5.92,15.768 -9.015,23.146 -1.776,4.234 -6.026,5.394 -10.941,3.488 -4.15,-1.609 -6.865,-4.361 -5.227,-9.031 2.709,-7.721 5.839,-15.294 9.008,-23.487 5.454,1.984 10.456,3.803 16.175,5.884 z"
   id="path21"
   style="fill:#f2f2f2;fill-rule:evenodd" />
	<g
   id="g23">
		<path
   d="m 3005.539,383.037 c -1.333,-2.18 -3.025,-4.219 -3.944,-6.562 -12.283,-31.365 -24.542,-62.739 -36.558,-94.207 -1.516,-3.975 -3.348,-5.39 -7.627,-5.282 -12.311,0.31 -24.634,0.108 -37.569,0.108 0,5.044 0,9.452 0,15.385 -4.742,-0.968 -10.275,-0.516 -12.066,-2.889 -1.954,-2.589 -0.444,-7.795 -0.444,-12.451 -13.784,0 -26.666,-0.117 -39.54,0.185 -1.271,0.03 -2.992,2.438 -3.641,4.083 -6.66,16.889 -13.138,33.85 -19.681,50.786 -0.726,1.876 -1.549,3.716 -2.534,6.07 -5.443,-1.998 -10.445,-3.836 -15.985,-5.871 7.052,-18.405 13.918,-36.325 21.4,-55.854 -6.066,0.74 -11.005,1.481 -15.969,1.91 -4.263,0.367 -8.706,1.081 -12.76,0.206 -1.607,-0.348 -2.981,-4.474 -3.37,-7.045 -0.415,-2.73 0.291,-6.118 4.218,-5.896 4.542,0.256 9.032,1.406 13.576,1.711 5.403,0.361 10.846,0.39 16.256,0.178 0.937,-0.037 2.162,-1.846 2.638,-3.075 12.386,-31.933 24.731,-63.88 36.898,-95.896 0.677,-1.782 0.237,-4.357 -0.499,-6.244 -4.531,-11.63 -1.288,-24.273 8.41,-31.818 9.894,-7.697 23.981,-7.914 34.023,-0.525 10.213,7.516 13.675,20.019 9.304,32.041 -0.856,2.357 -0.937,5.578 -0.056,7.898 11.892,31.315 24.063,62.524 36.007,93.819 1.217,3.186 2.888,4.415 6.168,4.063 7.683,-0.823 15.384,-1.478 23.068,-2.287 5.169,-0.544 6.932,1.758 6.956,6.823 0.023,5.171 -1.976,7.313 -7.027,6.729 -5.849,-0.674 -11.69,-1.406 -17.547,-2.008 -1.807,-0.185 -3.649,-0.029 -6.264,-0.029 2.303,6.106 4.29,11.498 6.362,16.856 5.334,13.785 10.196,27.784 16.212,41.268 5.47,12.254 4.479,24.857 4.236,37.54 -0.061,3.157 -0.533,6.306 -0.814,9.457 -0.612,0.275 -1.226,0.55 -1.837,0.823 z m -46.285,-115.438 c -11.537,-29.656 -22.676,-58.412 -34.047,-87.076 -0.456,-1.149 -3.069,-1.931 -4.723,-2.017 -3.692,-0.19 -7.563,0.871 -11.085,0.12 -4.18,-0.892 -5.946,0.063 -7.447,4.04 -10.107,26.771 -20.459,53.449 -30.708,80.166 -0.56,1.464 -0.904,3.011 -1.36,4.556 12.658,0 24.733,0 37.41,0 0,-4.486 0,-8.523 0,-12.764 4.425,0 8.233,0 12.285,0 0.202,4.563 0.39,8.751 0.578,12.975 13.149,0 25.657,0 39.097,0 z m -45.331,-100.826 c 8.929,0.069 15.53,-6.218 15.571,-14.832 0.04,-8.447 -6.828,-15.16 -15.454,-15.103 -8.367,0.056 -15.281,6.655 -15.414,14.714 -0.141,8.558 6.487,15.154 15.297,15.221 z"
   id="path25"
   style="fill:#f2f2f2;fill-rule:evenodd" />
		<path
   d="m 2923.169,121.616 c -6.775,0 -11.582,0 -17.83,0 0.843,-5.17 0.42,-10.735 2.87,-14.357 1.333,-1.969 9.806,-2.247 11.09,-0.451 2.649,3.703 2.637,9.309 3.87,14.808 z"
   id="path27"
   style="fill:#f2f2f2;fill-rule:evenodd" />
	</g>
	<path
   d="m 2821.94,343.278 c 1.002,-2.808 1.792,-5.023 2.779,-7.79 5.493,1.966 10.519,3.765 16.046,5.742 -0.923,2.635 -1.694,4.841 -2.746,7.844 -5.46,-1.969 -10.591,-3.818 -16.079,-5.796 z"
   id="path29"
   style="fill:#f2f2f2;fill-rule:evenodd" />
</g>
<g
   transform="translate(-114.631,-381.75901)"
   id="g31"
   style="opacity:0.5">
	<g
   id="g33">
		<defs
   id="defs35">
			<rect
   width="129.07001"
   height="138.28101"
   x="3466.4351"
   y="170.992"
   id="SVGID_1_" />
		</defs>
		<clipPath
   id="SVGID_2_">
			<use
   id="use39"
   style="overflow:visible"
   x="0"
   y="0"
   width="512"
   height="512"
   xlink:href="#SVGID_1_" />
		</clipPath>
		<g
   clip-path="url(#SVGID_2_)"
   id="g41">
			<defs
   id="defs43">
				<rect
   width="129.07001"
   height="131.657"
   x="3466.4351"
   y="177.616"
   id="SVGID_3_" />
			</defs>
			<clipPath
   id="SVGID_4_">
				<use
   id="use47"
   style="overflow:visible"
   x="0"
   y="0"
   width="512"
   height="512"
   xlink:href="#SVGID_3_" />
			</clipPath>
			<path
   d="m 3546.618,239.206 v 9.715 c 1.772,0.763 3.792,1.654 6.07,2.655 2.259,0.99 4.583,2.015 6.995,3.068 2.42,1.053 4.85,2.101 7.318,3.164 2.458,1.043 4.793,2.024 7.014,2.939 2.201,0.91 4.203,1.72 5.965,2.449 1.783,0.719 3.212,1.271 4.316,1.648 2.326,0.839 4.203,2.097 5.662,3.788 1.42,1.687 2.563,3.407 3.393,5.189 0.99,2.044 1.715,4.202 2.162,17.015 v 18.436 h -129.068 v -28.98 c 0.495,-2.268 1.238,-4.426 2.22,-6.47 0.838,-1.782 1.964,-3.503 3.421,-5.189 1.439,-1.691 3.278,-2.949 5.557,-3.788 1.162,-0.377 2.687,-0.943 4.564,-1.701 1.887,-0.738 3.982,-1.601 6.309,-2.568 2.315,-0.962 4.764,-2.006 7.356,-3.12 2.563,-1.101 5.128,-2.197 7.653,-3.308 2.563,-1.115 4.974,-2.158 7.232,-3.149 2.277,-1.011 4.278,-1.892 5.965,-2.665 v -9.462 c -0.085,-0.443 -0.276,-1.115 -0.514,-2.034 -0.258,-0.92 -0.515,-1.834 -0.801,-2.783 -0.324,-1.096 -0.715,-2.296 -1.163,-3.563 -1.61,-2.998 -2.878,-6.375 -3.821,-10.164 -0.934,-3.793 -1.4,-7.824 -1.4,-12.083 0,-5.59 0.59,-10.335 1.781,-14.19 1.183,-3.878 2.803,-7.028 4.86,-9.458 2.03,-2.439 4.432,-4.207 7.167,-5.313 2.754,-1.115 5.689,-1.667 8.843,-1.667 3.107,0 6.014,0.543 8.768,1.619 2.735,1.083 5.136,2.821 7.205,5.223 2.087,2.416 3.716,5.575 4.907,9.473 1.191,3.888 1.782,8.677 1.782,14.313 0,4.159 -0.467,8.095 -1.373,11.831 -0.914,3.736 -2.172,7.095 -3.773,10.093 -0.438,1.367 -0.858,2.672 -1.238,3.887 -0.334,1.063 -0.64,2.073 -0.925,3.026 -0.267,0.981 -0.409,1.69 -0.409,2.124"
   clip-path="url(#SVGID_4_)"
   id="path49"
   style="fill:#f2f2f2" />
		</g>
	</g>
</g>
<g
   transform="translate(-114.631,-381.75901)"
   id="g51"
   style="opacity:0.5">
	<g
   id="g53">
		<defs
   id="defs55">
			<rect
   width="129.069"
   height="138.28101"
   x="3300.4951"
   y="170.992"
   id="SVGID_5_" />
		</defs>
		<clipPath
   id="SVGID_6_">
			<use
   id="use59"
   style="overflow:visible"
   x="0"
   y="0"
   width="512"
   height="512"
   xlink:href="#SVGID_5_" />
		</clipPath>
		<g
   clip-path="url(#SVGID_6_)"
   id="g61">
			<defs
   id="defs63">
				<rect
   width="129.069"
   height="131.657"
   x="3300.4951"
   y="177.616"
   id="SVGID_7_" />
			</defs>
			<clipPath
   id="SVGID_8_">
				<use
   id="use67"
   style="overflow:visible"
   x="0"
   y="0"
   width="512"
   height="512"
   xlink:href="#SVGID_7_" />
			</clipPath>
			<path
   d="m 3380.678,239.206 v 9.715 c 1.772,0.763 3.793,1.654 6.07,2.655 2.258,0.99 4.584,2.015 7.004,3.068 2.411,1.053 4.841,2.101 7.31,3.164 2.458,1.043 4.794,2.024 7.014,2.939 2.201,0.91 4.203,1.72 5.966,2.449 1.782,0.719 3.211,1.271 4.316,1.648 2.326,0.839 4.203,2.097 5.661,3.788 1.419,1.687 2.563,3.407 3.392,5.189 0.992,2.044 1.716,4.202 2.164,17.015 v 18.436 h -129.07 v -28.98 c 0.496,-2.268 1.239,-4.426 2.221,-6.47 0.839,-1.782 1.963,-3.503 3.422,-5.189 1.438,-1.691 3.277,-2.949 5.556,-3.788 1.163,-0.377 2.687,-0.943 4.564,-1.701 1.887,-0.738 3.983,-1.601 6.308,-2.568 2.316,-0.962 4.766,-2.006 7.357,-3.12 2.564,-1.101 5.127,-2.197 7.652,-3.308 2.564,-1.115 4.975,-2.158 7.234,-3.149 2.277,-1.011 4.277,-1.892 5.965,-2.665 v -9.462 c -0.086,-0.443 -0.276,-1.115 -0.515,-2.034 -0.257,-0.92 -0.515,-1.834 -0.8,-2.783 -0.324,-1.096 -0.715,-2.296 -1.164,-3.563 -1.61,-2.998 -2.877,-6.375 -3.821,-10.164 -0.934,-3.793 -1.401,-7.824 -1.401,-12.083 0,-5.59 0.592,-10.335 1.783,-14.19 1.182,-3.878 2.802,-7.028 4.859,-9.458 2.031,-2.439 4.432,-4.207 7.166,-5.313 2.754,-1.115 5.69,-1.667 8.845,-1.667 3.106,0 6.014,0.543 8.768,1.619 2.733,1.083 5.136,2.821 7.204,5.223 2.087,2.416 3.717,5.575 4.908,9.473 1.19,3.888 1.781,8.677 1.781,14.313 0,4.159 -0.467,8.095 -1.372,11.831 -0.915,3.736 -2.173,7.095 -3.774,10.093 -0.438,1.367 -0.857,2.672 -1.238,3.887 -0.334,1.063 -0.639,2.073 -0.925,3.026 -0.268,0.981 -0.41,1.69 -0.41,2.124"
   clip-path="url(#SVGID_8_)"
   id="path69"
   style="fill:#f2f2f2" />
		</g>
	</g>
</g>
<path
   d="m 3360.199,-133.33301 v 16.644 c 3.031,1.324 6.5,2.844 10.378,4.555 3.889,1.701 7.892,3.459 12.019,5.27 4.135,1.807 8.309,3.592 12.521,5.408 4.221,1.801 8.242,3.479 12.035,5.061001 3.783,1.549 7.205,2.944 10.235,4.188 3.049,1.239 5.499,2.179 7.396,2.836 3.982,1.43 7.223,3.584 9.69,6.49 2.46,2.892 4.394,5.826 5.833,8.885 1.695,3.514 2.936,7.211 3.688,11.104 v 18.068 h -221.25 v -18.068 c 0.857,-3.893 2.135,-7.59 3.831,-11.104 1.42,-3.059 3.374,-5.993 5.832,-8.885 2.478,-2.906 5.651,-5.061 9.538,-6.49 1.993,-0.657 4.604,-1.621 7.824,-2.916 3.24,-1.282 6.843,-2.76 10.816,-4.402 3.983,-1.658001 8.187,-3.441001 12.607,-5.342001 4.402,-1.896 8.787,-3.789 13.143,-5.689 4.363,-1.905 8.49,-3.693 12.379,-5.403 3.897,-1.716 7.309,-3.23 10.254,-4.556 v -16.219 c -0.191,-0.758 -0.506,-1.93 -0.916,-3.493 -0.438,-1.567 -0.885,-3.154 -1.361,-4.773 -0.563,-1.883 -1.23,-3.926 -1.992,-6.114 -2.755,-5.122 -4.927,-10.921 -6.547,-17.42 -1.61,-6.499 -2.421,-13.403 -2.421,-20.703 0,-9.591 1.02,-17.701 3.06,-24.338 2.039,-6.642 4.813,-12.045 8.338,-16.21 3.498,-4.179 7.604,-7.223 12.303,-9.115 4.689,-1.906 9.739,-2.844 15.143,-2.844 5.318,0 10.32,0.919 15.02,2.772 4.697,1.859 8.824,4.836 12.369,8.958 3.564,4.136 6.356,9.535 8.405,16.233 2.049,6.671 3.06,14.871 3.06,24.543 0,7.119 -0.791,13.861 -2.354,20.275 -1.572,6.409 -3.727,12.16 -6.46,17.301 -0.764,2.349 -1.479,4.583 -2.137,6.662 -0.57,1.82 -1.105,3.549 -1.572,5.188 -0.478,1.68 -0.707,2.895 -0.707,3.643"
   id="path71"
   style="fill:#f2f2f2" />
<path
   d="m 14.423058,6.345969 h -0.691511 c -0.317561,0 -0.65448,-0.2483247 -0.748954,-0.5512045 l -0.397358,-0.966104 c -0.149444,-0.2794647 -0.0879,-0.6917993 0.13482,-0.9163041 l 0.492568,-0.4903946 c 0.22456,-0.2252248 0.22456,-0.5929044 0,-0.8170341 L 12.394814,1.7893034 c -0.224139,-0.2244899 -0.590725,-0.2244899 -0.815285,0 l -0.492621,0.4907695 c -0.223034,0.2241298 -0.63649,0.2852398 -0.916703,0.1351499 L 9.2058447,2.0182482 C 8.9036963,1.9244983 8.6550448,1.5875535 8.6550448,1.2697039 V 0.5774995 C 8.6550448,0.2607448 8.3946627,0 8.0771018,0 H 6.9231097 C 6.6055489,0 6.3455352,0.2607898 6.3455352,0.5774995 v 0.6921744 c 0,0.3179096 -0.2472316,0.6548094 -0.5504846,0.7485443 L 4.8296384,2.4151928 C 4.548794,2.5653127 4.1381794,2.5048927 3.913304,2.2800429 L 3.4206826,1.7892734 c -0.2245073,-0.2244899 -0.5907779,-0.2244899 -0.8145486,0 L 1.7901651,2.6048977 c -0.2252436,0.2241297 -0.2252436,0.5918093 0,0.8163591 L 2.2794728,3.9123264 C 2.5047164,4.1368762 2.5662613,4.5492108 2.4150293,4.8286305 L 2.0184071,5.7954695 C 1.9231436,6.0982893 1.5880666,6.346254 1.2701376,6.346254 L 0.57720591,6.345939 C 0.26006588,6.345969 -5e-7,6.6052288 -5e-7,6.9227335 v 1.1536339 c 0,0.3178046 0.26006638,0.5775444 0.57720641,0.5775444 H 1.2701376 c 0.317929,7.35e-4 0.6530064,0.2490149 0.7467965,0.5512045 l 0.3980951,0.9659987 c 0.1508638,0.280155 0.089741,0.69411 -0.1355565,0.917189 l -0.490728,0.49029 c -0.2238233,0.225285 -0.2238233,0.59223 0,0.817049 l 0.8174417,0.816359 c 0.2237708,0.224175 0.5900414,0.224175 0.8145485,0 l 0.4926219,-0.491505 c 0.2234548,-0.223394 0.6354899,-0.284879 0.9137565,-0.13365 l 0.9679897,0.39741 c 0.3032531,0.0948 0.5504845,0.430635 0.5504845,0.748125 v 0.690854 c 0,0.316755 0.2600664,0.576765 0.5775746,0.576765 h 1.1539922 c 0.3175606,0 0.5779426,-0.25995 0.5779426,-0.576765 v -0.690854 c 0,-0.31749 0.2487043,-0.653295 0.5508001,-0.748125 l 0.967306,-0.39741 c 0.279056,-0.151214 0.692196,-0.0897 0.916703,0.13365 l 0.489676,0.491505 c 0.224559,0.224175 0.591146,0.224175 0.815285,0 l 0.817809,-0.816359 c 0.22456,-0.224819 0.22456,-0.591764 0,-0.817049 l -0.492569,-0.49029 c -0.222718,-0.223019 -0.28421,-0.636989 -0.13482,-0.917189 l 0.397359,-0.9659987 c 0.09447,-0.3021446 0.433234,-0.5504695 0.748952,-0.5504695 h 0.691513 c 0.317929,0 0.57689,-0.2593198 0.57689,-0.5772294 V 6.9226735 C 14.99995,6.6052888 14.740987,6.345969 14.423058,6.345969 m -4.036394,1.1532589 c 0,1.5934185 -1.2913898,2.8840321 -2.8845594,2.8840321 -1.59459,0 -2.8855585,-1.2906136 -2.8855585,-2.8840321 0,-1.5931035 1.2909685,-2.8844372 2.8855585,-2.8844372 1.5931696,0 2.8845594,1.2913337 2.8845594,2.8844372"
   id="path73"
   style="fill:#ffffff" />
<path
   d="m 756.984,-39.123009 c 0,22.761 -18.442,41.2009999 -41.202,41.2009999 -22.772,0 -41.215,-18.4399999 -41.215,-41.2009999 0,-22.773 18.442,-41.215 41.215,-41.215 22.759,0 41.202,18.441 41.202,41.215"
   id="path75"
   style="fill:#ffffff" />
<path
   d="m 784.131,-220.36901 c 0,22.771 -18.442,41.213 -41.214,41.213 -22.761,0 -41.202,-18.441 -41.202,-41.213 0,-22.761 18.441,-41.202 41.202,-41.202 22.772,0 41.214,18.441 41.214,41.202"
   id="path77"
   style="fill:#ffffff" />
<path
   d="m 609.886,-111.68401 c 0,22.761001 -18.442,41.203001 -41.203,41.203001 -22.761,0 -41.203,-18.442 -41.203,-41.203001 0,-22.761 18.442,-41.201 41.203,-41.201 22.761,0 41.203,18.44 41.203,41.201"
   id="path79"
   style="fill:#ffffff" />
<line
   x1="568.80804"
   y1="-113.00901"
   x2="742.91699"
   y2="-220.36902"
   id="line81"
   style="fill:none;stroke:#ffffff;stroke-width:10" />
<line
   x1="719.47601"
   y1="-37.937012"
   x2="568.68304"
   y2="-109.956"
   id="line83"
   style="fill:none;stroke:#ffffff;stroke-width:10" />
<g
   transform="translate(-114.631,-381.75901)"
   id="g85">
	<path
   d="m 1376.854,385.831 h -109.236 v -18.508 h 5.834 c 7.776,0 13.444,-1.071 16.999,-3.219 3.552,-2.144 5.733,-5.161 6.538,-9.053 0.805,-3.888 1.207,-9.587 1.207,-17.1 v -59.748 c 0,-8.313 -0.503,-14.214 -1.509,-17.703 -1.006,-3.485 -3.621,-6.035 -7.846,-7.645 -4.225,-1.61 -11.3,-2.48 -21.224,-2.615 v -18.508 l 82.48,-17.301 v 123.52 c 0,11.266 1.408,18.979 4.225,23.135 2.816,4.159 10.326,6.236 22.531,6.236 v 18.509 z m -22.732,-250.057 c 0,8.047 -2.851,14.921 -8.55,20.62 -5.702,5.702 -12.573,8.55 -20.62,8.55 -7.915,0 -14.786,-2.917 -20.62,-8.751 -5.834,-5.834 -8.751,-12.639 -8.751,-20.419 0,-8.047 2.882,-14.953 8.65,-20.721 5.765,-5.765 12.674,-8.65 20.721,-8.65 8.179,0 15.088,2.816 20.721,8.449 5.633,5.633 8.449,12.608 8.449,20.922 z"
   id="path87"
   style="fill:#ffffff" />
</g>
<g
   transform="translate(-114.631,-381.75901)"
   id="g89">
	<path
   d="m 1766.338,208.579 c 0.236,-12.96 2.458,-24.84 6.66,-35.64 4.196,-10.8 10.08,-20.16 17.641,-28.08 7.56,-7.92 16.678,-14.096 27.359,-18.54 10.677,-4.438 22.618,-6.66 35.82,-6.66 17.038,0 31.258,2.34 42.66,7.02 11.396,4.68 20.576,10.502 27.54,17.46 6.958,6.964 11.937,14.462 14.939,22.5 2.998,8.044 4.5,15.542 4.5,22.5 0,8.64 -0.844,16.144 -2.52,22.5 -1.682,6.362 -3.96,11.88 -6.84,16.56 -2.88,4.68 -6.12,8.764 -9.721,12.24 -3.6,3.482 -7.323,6.66 -11.159,9.54 -3.842,2.88 -7.685,5.704 -11.521,8.46 -3.842,2.762 -7.38,5.76 -10.62,9 -3.24,3.239 -6.063,6.84 -8.46,10.799 -2.401,3.961 -3.96,8.584 -4.68,13.86 v 13.681 h -48.601 v -16.201 c 0.479,-7.92 1.738,-14.76 3.78,-20.52 2.036,-5.76 4.5,-10.855 7.38,-15.3 2.88,-4.438 6.059,-8.28 9.54,-11.52 3.477,-3.24 7.021,-6.3 10.62,-9.18 3.601,-2.88 6.958,-5.58 10.08,-8.1 3.116,-2.52 5.878,-5.276 8.28,-8.28 2.396,-2.998 4.319,-6.3 5.76,-9.9 1.441,-3.6 2.16,-7.796 2.16,-12.6 0,-11.036 -2.7,-19.198 -8.101,-24.48 -5.399,-5.276 -12.903,-7.92 -22.5,-7.92 -6.479,0 -12.06,1.26 -16.739,3.78 -4.681,2.52 -8.522,5.883 -11.521,10.08 -3.004,4.202 -5.22,9.124 -6.66,14.76 -1.439,5.642 -2.159,11.7 -2.159,18.18 h -52.917 z m 57.961,118.8 h 56.52 v 55.439 h -56.52 v -55.439 z"
   id="path91"
   style="fill:#ffffff" />
</g>
<g
   transform="translate(-114.631,-381.75901)"
   id="g93">
</g>
<g
   transform="translate(-114.631,-381.75901)"
   id="g95">
</g>
<g
   transform="translate(-114.631,-381.75901)"
   id="g97">
</g>
<g
   transform="translate(-114.631,-381.75901)"
   id="g99">
</g>
<g
   transform="translate(-114.631,-381.75901)"
   id="g101">
</g>
<g
   transform="translate(-114.631,-381.75901)"
   id="g103">
</g>
<g
   transform="translate(-114.631,-381.75901)"
   id="g105">
</g>
<g
   transform="translate(-114.631,-381.75901)"
   id="g107">
</g>
<g
   transform="translate(-114.631,-381.75901)"
   id="g109">
</g>
<g
   transform="translate(-114.631,-381.75901)"
   id="g111">
</g>
<g
   transform="translate(-114.631,-381.75901)"
   id="g113">
</g>
<g
   transform="translate(-114.631,-381.75901)"
   id="g115">
</g>
<g
   transform="translate(-114.631,-381.75901)"
   id="g117">
</g>
<g
   transform="translate(-114.631,-381.75901)"
   id="g119">
</g>
<g
   transform="translate(-114.631,-381.75901)"
   id="g121">
</g>
</svg>