<svg xmlns="http://www.w3.org/2000/svg" width="15" height="15" viewBox="0 0 128 128"><path d="M108 48H68c12-13.332-12-26.668 0-40h-8c-12 13.332 12 26.668 0 40H20c-8.836 0-16 7.164-16 16v40c0 8.836 7.164 16 16 16h88c8.836 0 16-7.164 16-16V64c0-8.836-7.164-16-16-16zm8 56c0 4.41-3.59 8-8 8H20c-4.41 0-8-3.59-8-8V64c0-4.41 3.59-8 8-8h88c4.41 0 8 3.59 8 8v40zM20 72h8v-8h-8v8zm0 16h8v-8h-8v8zm0 16h8v-8h-8v8zm24-40h-8v8h8v-8zm0 16h-8v8h8v-8zm16-16h-8v8h8v-8zm0 16h-8v8h8v-8zm8-8h8v-8h-8v8zm0 16h8v-8h-8v8zm16-16h8v-8h-8v8zm0 16h8v-8h-8v8zm0 16h8v-8h-8v8zm16-32h8v-8h-8v8zm0 16h8v-8h-8v8zm0 16h8v-8h-8v8zm-64 0h40v-8H36v8z" fill="#fff"/></svg>
