<svg xmlns="http://www.w3.org/2000/svg" width="15" height="15" viewBox="0 0 15 15"><path d="M14.9999976 7.4999989c0 4.13466152-2.82397914 7.4999989-6.29693777 7.4999989-.61377541 0-1.11122431-.59248897-1.11122431-1.32352922 0-.73104024.4974489-1.32352921 1.11122431-1.32352921 2.24693842 0 4.07448915-2.17671335 4.07448915-4.85294047s-1.82755073-4.85294047-4.07448915-4.85294047c-2.13214251 0-3.88316264 1.96159427-4.0561218 4.45004797l.67806112-.80760805c.4331632-.51774421 1.13724471-.51774421 1.57040791 0 .4346938.51592117.4346938 1.35452095 0 1.87044212l-2.4994894 2.97702921c-.20816323.24793385-.49132645.38830816-.78520395.38830816-.29540812 0-.57704073-.13855126-.78520396-.38830815L.32602035 8.15994047c-.4346938-.51774422-.4346938-1.35452095 0-1.87044212.43469381-.51774421 1.13724472-.51774421 1.57193853 0l.53418359.636242C2.6801016 3.05906616 5.3954073 0 8.70305983 0c3.47295863 0 6.29693777 3.36533738 6.29693777 7.4999989Z" fill="#fff"/></svg>
